<?xml version="1.0" standalone="no"?>
<!DOCTYPE svg PUBLIC "-//W3C//DTD SVG 20010904//EN"
 "http://www.w3.org/TR/2001/REC-SVG-20010904/DTD/svg10.dtd">
<svg version="1.0" xmlns="http://www.w3.org/2000/svg"
 width="512.000000pt" height="512.000000pt" viewBox="0 0 512.000000 512.000000"
 preserveAspectRatio="xMidYMid meet">
<metadata>
Created by potrace 1.14, written by Peter Selinger 2001-2017
</metadata>
<g transform="translate(0.000000,512.000000) scale(0.100000,-0.100000)"
fill="#000000" stroke="none">
<path d="M2 4668 l3 -452 148 -1 147 0 0 302 0 303 302 2 302 3 0 145 0 145
-452 3 -452 2 2 -452z"/>
<path d="M4218 5113 c-2 -5 -4 -71 -3 -148 l0 -140 303 -3 303 -2 -1 -23 c-1
-12 -2 -148 -1 -302 l1 -280 150 0 150 0 0 453 0 452 -449 0 c-248 0 -451 -3
-453 -7z"/>
<path d="M2469 4366 c-2 -2 -35 -6 -74 -10 -38 -3 -81 -8 -95 -11 -14 -3 -38
-8 -55 -11 -163 -29 -286 -72 -495 -172 -94 -44 -340 -190 -360 -211 -3 -4
-49 -39 -104 -80 -190 -141 -455 -390 -636 -596 -29 -33 -65 -73 -79 -90 -66
-75 -229 -291 -302 -400 -43 -66 -83 -124 -87 -130 -18 -23 -52 -87 -52 -96 0
-6 32 -58 70 -115 39 -58 70 -109 70 -114 0 -4 3 -10 8 -12 4 -1 43 -52 87
-113 208 -286 436 -538 721 -796 120 -108 376 -295 505 -369 88 -50 199 -104
284 -140 44 -18 89 -36 100 -41 48 -20 238 -69 330 -84 167 -28 406 -24 565 9
14 3 50 11 80 17 162 34 453 160 645 280 356 222 724 565 1046 974 52 66 106
136 119 155 13 19 27 37 30 40 15 12 200 299 200 310 0 22 -303 460 -339 490
-3 3 -19 23 -35 44 -107 143 -366 420 -541 578 -392 355 -828 596 -1195 662
-19 3 -44 8 -55 10 -77 15 -346 31 -356 22z"/>
<path d="M0 452 l0 -452 452 2 452 3 1 147 0 148 -302 0 -303 0 0 303 0 302
-150 0 -150 0 0 -453z"/>
<path d="M4837 902 c-15 -3 -17 -30 -19 -300 l-3 -297 -300 -5 -300 -5 0 -148
0 -147 453 0 452 0 -2 452 -3 452 -130 0 c-72 1 -138 0 -148 -2z"/>
</g>
</svg>
